<svg xmlns="http://www.w3.org/2000/svg" style="display: none;">
    <symbol id="piggy-bank" x="0px" y="0px" viewBox="0 0 490.1 490.1" xml:space="preserve">
        <g>
            <path d="M356.319,424l2.5-2.2c0.4-0.3,0.7-0.6,1-1c1.3-1.5,30.5-35.2,41.6-61.1h5.3
                c15.1,0,27.4-12.3,27.4-27.4V289c0-15.1-12.3-27.4-27.4-27.4h-5.9c-9.1-23.7-24.6-45.1-45.2-62.5c-3-10.7-0.8-22.1,6.7-34
                c4.2-6.7,4.2-15.1-0.1-21.8c-4.3-6.7-11.8-10.3-19.7-9.3c-28.9,3.6-46.2,16.7-56.3,28.9c-9.5-2.6-19.3-4.6-29.2-5.7
                c-5.4-0.6-10.4,3.2-11,8.7c-0.6,5.4,3.2,10.4,8.7,11c11,1.3,21.9,3.7,32.3,7c4.2,1.3,8.7-0.3,11.2-3.9
                c6.8-10.1,20.5-22.9,46.7-26.2c0.2,0,0.4,0,0.6,0.3s0.1,0.5,0,0.6c-10.4,16.6-13.5,33.9-8.9,50.1c0.1,2.9,1.4,5.6,3.7,7.4
                c21.1,17,36.4,38.6,44.2,62.5c1.3,4.1,5.2,6.8,9.4,6.8l0,0h12.8c4.2,0,7.6,3.4,7.6,7.6v43.3c0,4.2-3.4,7.6-7.6,7.6h-12.1
                c-4.3,0-8.2,2.8-9.5,7c-5.6,18.3-30.2,49.3-39.8,60.4l-2.2,1.9c-20.6,18.6-22.7,40.6-22.8,47.2v13.9h-57.1V457
                c0-2.8-1.2-5.5-3.3-7.4c-2.1-1.9-4.9-2.8-7.7-2.5c-14.6,1.5-29.3,1.3-43.5-0.6c-2.8-0.4-5.7,0.5-7.8,2.4c-2.2,1.9-3.4,4.6-3.4,7.5
                v13.9h-57.1v-3.9c0-0.1,0-0.3,0-0.4c-0.5-10.5-3.8-37.1-24.6-58.5c-9.8-10.1-18.6-23.5-26.2-39.7c-0.1-0.1-0.1-0.2-0.2-0.4
                c-4.5-8.6-7.9-17.7-10.2-27.3l-0.1-0.4c0-0.1-0.1-0.2-0.1-0.3c-3.6-12-3.2-27.1-3.2-27.2s0-0.2,0-0.3c0-6.6,0.6-13.3,1.6-19.8
                c0.9-5.4-2.7-10.5-8.1-11.4s-10.5,2.7-11.4,8.1c-1.3,7.5-1.9,15.2-1.9,22.9c-0.1,2-0.3,18.8,4,33.3l0,0
                c2.6,10.7,6.6,21.2,11.7,31.2c8.4,18.2,18.5,33.3,29.8,45c15.9,16.4,18.6,37,19,45.4v4.1c0,0.4,0,0.7,0.1,1.3
                c0.7,10.1,9.2,18.1,19.3,18.1h57.9c10.7,0,19.4-8.7,19.4-19.4v-3.3c8.7,0.7,17.3,0.8,26.1,0.4v2.9c0,10.7,8.7,19.4,19.4,19.4h57.9
                c10.7,0,19.4-8.7,19.4-19.4v-14.1C340.219,453.5,341.319,437.5,356.319,424z"/>
            <path d="M56.819,191.4c0,44.9,36.5,81.5,81.5,81.5c44.9,0,81.5-36.5,81.5-81.5c0-44.9-36.5-81.5-81.5-81.5
                C93.419,109.9,56.819,146.4,56.819,191.4z M200.019,191.4c0,34-27.7,61.7-61.7,61.7s-61.7-27.7-61.7-61.7s27.7-61.7,61.7-61.7
                S200.019,157.4,200.019,191.4z"/>
            <path d="M288.219,56.8c0-31.3-25.5-56.8-56.8-56.8s-56.8,25.5-56.8,56.8s25.5,56.8,56.8,56.8
                S288.219,88.1,288.219,56.8z M194.319,56.8c0-20.4,16.6-37,37-37s37,16.6,37,37s-16.6,37-37,37S194.319,77.2,194.319,56.8z"/>
        </g>
    </symbol>
    <symbol id="like" xmlns="http://www.w3.org/2000/svg" x="0px" y="0px" viewBox="0 0 478.2 478.2" xml:space="preserve">
        <g>
            <path d="M457.575,325.1c9.8-12.5,14.5-25.9,13.9-39.7c-0.6-15.2-7.4-27.1-13-34.4c6.5-16.2,9-41.7-12.7-61.5
                c-15.9-14.5-42.9-21-80.3-19.2c-26.3,1.2-48.3,6.1-49.2,6.3h-0.1c-5,0.9-10.3,2-15.7,3.2c-0.4-6.4,0.7-22.3,12.5-58.1
                c14-42.6,13.2-75.2-2.6-97c-16.6-22.9-43.1-24.7-50.9-24.7c-7.5,0-14.4,3.1-19.3,8.8c-11.1,12.9-9.8,36.7-8.4,47.7
                c-13.2,35.4-50.2,122.2-81.5,146.3c-0.6,0.4-1.1,0.9-1.6,1.4c-9.2,9.7-15.4,20.2-19.6,29.4c-5.9-3.2-12.6-5-19.8-5h-61
                c-23,0-41.6,18.7-41.6,41.6v162.5c0,23,18.7,41.6,41.6,41.6h61c8.9,0,17.2-2.8,24-7.6l23.5,2.8c3.6,0.5,67.6,8.6,133.3,7.3
                c11.9,0.9,23.1,1.4,33.5,1.4c17.9,0,33.5-1.4,46.5-4.2c30.6-6.5,51.5-19.5,62.1-38.6c8.1-14.6,8.1-29.1,6.8-38.3
                c19.9-18,23.4-37.9,22.7-51.9C461.275,337.1,459.475,330.2,457.575,325.1z M48.275,447.3c-8.1,0-14.6-6.6-14.6-14.6V270.1
                c0-8.1,6.6-14.6,14.6-14.6h61c8.1,0,14.6,6.6,14.6,14.6v162.5c0,8.1-6.6,14.6-14.6,14.6h-61V447.3z M431.975,313.4
                c-4.2,4.4-5,11.1-1.8,16.3c0,0.1,4.1,7.1,4.6,16.7c0.7,13.1-5.6,24.7-18.8,34.6c-4.7,3.6-6.6,9.8-4.6,15.4c0,0.1,4.3,13.3-2.7,25.8
                c-6.7,12-21.6,20.6-44.2,25.4c-18.1,3.9-42.7,4.6-72.9,2.2c-0.4,0-0.9,0-1.4,0c-64.3,1.4-129.3-7-130-7.1h-0.1l-10.1-1.2
                c0.6-2.8,0.9-5.8,0.9-8.8V270.1c0-4.3-0.7-8.5-1.9-12.4c1.8-6.7,6.8-21.6,18.6-34.3c44.9-35.6,88.8-155.7,90.7-160.9
                c0.8-2.1,1-4.4,0.6-6.7c-1.7-11.2-1.1-24.9,1.3-29c5.3,0.1,19.6,1.6,28.2,13.5c10.2,14.1,9.8,39.3-1.2,72.7
                c-16.8,50.9-18.2,77.7-4.9,89.5c6.6,5.9,15.4,6.2,21.8,3.9c6.1-1.4,11.9-2.6,17.4-3.5c0.4-0.1,0.9-0.2,1.3-0.3
                c30.7-6.7,85.7-10.8,104.8,6.6c16.2,14.8,4.7,34.4,3.4,36.5c-3.7,5.6-2.6,12.9,2.4,17.4c0.1,0.1,10.6,10,11.1,23.3
                C444.875,295.3,440.675,304.4,431.975,313.4z"/>
        </g>
    </symbol>
</svg>