<svg version="1.1" id="Capa_1" xmlns="http://www.w3.org/2000/svg" xmlns:xlink="http://www.w3.org/1999/xlink" x="0px" y="0px"
	 viewBox="0 0 242.643 242.643" style="enable-background:new 0 0 242.643 242.643;" xml:space="preserve">
<g>
	<path style="fill:#000002;" d="M225.142,0H17.5C7.851,0,0,7.851,0,17.5v207.643c0,9.65,7.851,17.5,17.5,17.5h207.642
		c9.649,0,17.5-7.85,17.5-17.5V17.5C242.642,7.851,234.791,0,225.142,0z M227.642,225.143c0,1.355-1.145,2.5-2.5,2.5H17.5
		c-1.355,0-2.5-1.145-2.5-2.5V17.5c0-1.355,1.145-2.5,2.5-2.5h207.642c1.355,0,2.5,1.145,2.5,2.5V225.143z"/>
	<path style="fill:#000002;" d="M102.252,40.646H36.606c-5.514,0-10,4.486-10,10v28.371c0,5.514,4.486,10,10,10h65.646
		c5.514,0,10-4.486,10-10V50.646C112.252,45.133,107.766,40.646,102.252,40.646z M102.237,79.018H36.606V50.646h65.646
		L102.237,79.018z M102.252,84.018v-5c0,0,0,0,0.001,0L102.252,84.018z"/>
	<path style="fill:#000002;" d="M206.037,157.222h-65.646c-5.514,0-10,4.486-10,10v28.371c0,5.514,4.486,10,10,10h65.646
		c5.514,0,10-4.486,10-10v-28.371C216.037,161.708,211.551,157.222,206.037,157.222z M206.022,195.593h-65.631v-28.371h65.646
		L206.022,195.593z M206.037,200.593v-5c0.001,0,0.001,0,0.001,0L206.037,200.593z"/>
	<path style="fill:#000002;" d="M107.252,106.425H31.606c-2.761,0-5,2.238-5,5c0,2.762,2.239,5,5,5h75.646c2.761,0,5-2.238,5-5
		C112.252,108.663,110.013,106.425,107.252,106.425z"/>
	<path style="fill:#000002;" d="M107.252,134.686H31.606c-2.761,0-5,2.238-5,5c0,2.762,2.239,5,5,5h75.646c2.761,0,5-2.238,5-5
		C112.252,136.925,110.013,134.686,107.252,134.686z"/>
	<path style="fill:#000002;" d="M107.252,162.947H31.606c-2.761,0-5,2.238-5,5c0,2.762,2.239,5,5,5h75.646c2.761,0,5-2.238,5-5
		C112.252,165.186,110.013,162.947,107.252,162.947z"/>
	<path style="fill:#000002;" d="M107.252,191.208H31.606c-2.761,0-5,2.238-5,5c0,2.762,2.239,5,5,5h75.646c2.761,0,5-2.238,5-5
		C112.252,193.446,110.013,191.208,107.252,191.208z"/>
	<path style="fill:#000002;" d="M211.037,49.904h-75.646c-2.761,0-5,2.238-5,5c0,2.762,2.239,5,5,5h75.646c2.761,0,5-2.238,5-5
		C216.037,52.143,213.798,49.904,211.037,49.904z"/>
	<path style="fill:#000002;" d="M211.037,78.165h-75.646c-2.761,0-5,2.238-5,5c0,2.762,2.239,5,5,5h75.646c2.761,0,5-2.238,5-5
		C216.037,80.403,213.798,78.165,211.037,78.165z"/>
	<path style="fill:#000002;" d="M211.037,106.425h-75.646c-2.761,0-5,2.238-5,5c0,2.762,2.239,5,5,5h75.646c2.761,0,5-2.238,5-5
		C216.037,108.663,213.798,106.425,211.037,106.425z"/>
	<path style="fill:#000002;" d="M211.037,134.686h-75.646c-2.761,0-5,2.238-5,5c0,2.762,2.239,5,5,5h75.646c2.761,0,5-2.238,5-5
		C216.037,136.925,213.798,134.686,211.037,134.686z"/>
</g>
</svg>
