<svg xmlns="http://www.w3.org/2000/svg" style="display: none;">
    <symbol id="ic-piggy-bank" x="0px" y="0px" viewBox="0 0 490.1 490.1" xml:space="preserve">
        <g>
            <path d="M356.319,424l2.5-2.2c0.4-0.3,0.7-0.6,1-1c1.3-1.5,30.5-35.2,41.6-61.1h5.3
                c15.1,0,27.4-12.3,27.4-27.4V289c0-15.1-12.3-27.4-27.4-27.4h-5.9c-9.1-23.7-24.6-45.1-45.2-62.5c-3-10.7-0.8-22.1,6.7-34
                c4.2-6.7,4.2-15.1-0.1-21.8c-4.3-6.7-11.8-10.3-19.7-9.3c-28.9,3.6-46.2,16.7-56.3,28.9c-9.5-2.6-19.3-4.6-29.2-5.7
                c-5.4-0.6-10.4,3.2-11,8.7c-0.6,5.4,3.2,10.4,8.7,11c11,1.3,21.9,3.7,32.3,7c4.2,1.3,8.7-0.3,11.2-3.9
                c6.8-10.1,20.5-22.9,46.7-26.2c0.2,0,0.4,0,0.6,0.3s0.1,0.5,0,0.6c-10.4,16.6-13.5,33.9-8.9,50.1c0.1,2.9,1.4,5.6,3.7,7.4
                c21.1,17,36.4,38.6,44.2,62.5c1.3,4.1,5.2,6.8,9.4,6.8l0,0h12.8c4.2,0,7.6,3.4,7.6,7.6v43.3c0,4.2-3.4,7.6-7.6,7.6h-12.1
                c-4.3,0-8.2,2.8-9.5,7c-5.6,18.3-30.2,49.3-39.8,60.4l-2.2,1.9c-20.6,18.6-22.7,40.6-22.8,47.2v13.9h-57.1V457
                c0-2.8-1.2-5.5-3.3-7.4c-2.1-1.9-4.9-2.8-7.7-2.5c-14.6,1.5-29.3,1.3-43.5-0.6c-2.8-0.4-5.7,0.5-7.8,2.4c-2.2,1.9-3.4,4.6-3.4,7.5
                v13.9h-57.1v-3.9c0-0.1,0-0.3,0-0.4c-0.5-10.5-3.8-37.1-24.6-58.5c-9.8-10.1-18.6-23.5-26.2-39.7c-0.1-0.1-0.1-0.2-0.2-0.4
                c-4.5-8.6-7.9-17.7-10.2-27.3l-0.1-0.4c0-0.1-0.1-0.2-0.1-0.3c-3.6-12-3.2-27.1-3.2-27.2s0-0.2,0-0.3c0-6.6,0.6-13.3,1.6-19.8
                c0.9-5.4-2.7-10.5-8.1-11.4s-10.5,2.7-11.4,8.1c-1.3,7.5-1.9,15.2-1.9,22.9c-0.1,2-0.3,18.8,4,33.3l0,0
                c2.6,10.7,6.6,21.2,11.7,31.2c8.4,18.2,18.5,33.3,29.8,45c15.9,16.4,18.6,37,19,45.4v4.1c0,0.4,0,0.7,0.1,1.3
                c0.7,10.1,9.2,18.1,19.3,18.1h57.9c10.7,0,19.4-8.7,19.4-19.4v-3.3c8.7,0.7,17.3,0.8,26.1,0.4v2.9c0,10.7,8.7,19.4,19.4,19.4h57.9
                c10.7,0,19.4-8.7,19.4-19.4v-14.1C340.219,453.5,341.319,437.5,356.319,424z"/>
            <path d="M56.819,191.4c0,44.9,36.5,81.5,81.5,81.5c44.9,0,81.5-36.5,81.5-81.5c0-44.9-36.5-81.5-81.5-81.5
                C93.419,109.9,56.819,146.4,56.819,191.4z M200.019,191.4c0,34-27.7,61.7-61.7,61.7s-61.7-27.7-61.7-61.7s27.7-61.7,61.7-61.7
                S200.019,157.4,200.019,191.4z"/>
            <path d="M288.219,56.8c0-31.3-25.5-56.8-56.8-56.8s-56.8,25.5-56.8,56.8s25.5,56.8,56.8,56.8
                S288.219,88.1,288.219,56.8z M194.319,56.8c0-20.4,16.6-37,37-37s37,16.6,37,37s-16.6,37-37,37S194.319,77.2,194.319,56.8z"/>
        </g>
    </symbol>
    <symbol id="ic-like" xmlns="http://www.w3.org/2000/svg" x="0px" y="0px" viewBox="0 0 478.2 478.2" xml:space="preserve">
        <g>
            <path d="M457.575,325.1c9.8-12.5,14.5-25.9,13.9-39.7c-0.6-15.2-7.4-27.1-13-34.4c6.5-16.2,9-41.7-12.7-61.5
                c-15.9-14.5-42.9-21-80.3-19.2c-26.3,1.2-48.3,6.1-49.2,6.3h-0.1c-5,0.9-10.3,2-15.7,3.2c-0.4-6.4,0.7-22.3,12.5-58.1
                c14-42.6,13.2-75.2-2.6-97c-16.6-22.9-43.1-24.7-50.9-24.7c-7.5,0-14.4,3.1-19.3,8.8c-11.1,12.9-9.8,36.7-8.4,47.7
                c-13.2,35.4-50.2,122.2-81.5,146.3c-0.6,0.4-1.1,0.9-1.6,1.4c-9.2,9.7-15.4,20.2-19.6,29.4c-5.9-3.2-12.6-5-19.8-5h-61
                c-23,0-41.6,18.7-41.6,41.6v162.5c0,23,18.7,41.6,41.6,41.6h61c8.9,0,17.2-2.8,24-7.6l23.5,2.8c3.6,0.5,67.6,8.6,133.3,7.3
                c11.9,0.9,23.1,1.4,33.5,1.4c17.9,0,33.5-1.4,46.5-4.2c30.6-6.5,51.5-19.5,62.1-38.6c8.1-14.6,8.1-29.1,6.8-38.3
                c19.9-18,23.4-37.9,22.7-51.9C461.275,337.1,459.475,330.2,457.575,325.1z M48.275,447.3c-8.1,0-14.6-6.6-14.6-14.6V270.1
                c0-8.1,6.6-14.6,14.6-14.6h61c8.1,0,14.6,6.6,14.6,14.6v162.5c0,8.1-6.6,14.6-14.6,14.6h-61V447.3z M431.975,313.4
                c-4.2,4.4-5,11.1-1.8,16.3c0,0.1,4.1,7.1,4.6,16.7c0.7,13.1-5.6,24.7-18.8,34.6c-4.7,3.6-6.6,9.8-4.6,15.4c0,0.1,4.3,13.3-2.7,25.8
                c-6.7,12-21.6,20.6-44.2,25.4c-18.1,3.9-42.7,4.6-72.9,2.2c-0.4,0-0.9,0-1.4,0c-64.3,1.4-129.3-7-130-7.1h-0.1l-10.1-1.2
                c0.6-2.8,0.9-5.8,0.9-8.8V270.1c0-4.3-0.7-8.5-1.9-12.4c1.8-6.7,6.8-21.6,18.6-34.3c44.9-35.6,88.8-155.7,90.7-160.9
                c0.8-2.1,1-4.4,0.6-6.7c-1.7-11.2-1.1-24.9,1.3-29c5.3,0.1,19.6,1.6,28.2,13.5c10.2,14.1,9.8,39.3-1.2,72.7
                c-16.8,50.9-18.2,77.7-4.9,89.5c6.6,5.9,15.4,6.2,21.8,3.9c6.1-1.4,11.9-2.6,17.4-3.5c0.4-0.1,0.9-0.2,1.3-0.3
                c30.7-6.7,85.7-10.8,104.8,6.6c16.2,14.8,4.7,34.4,3.4,36.5c-3.7,5.6-2.6,12.9,2.4,17.4c0.1,0.1,10.6,10,11.1,23.3
                C444.875,295.3,440.675,304.4,431.975,313.4z"/>
        </g>
    </symbol>
    <symbol id="ic-dollar" xmlns="http://www.w3.org/2000/svg" x="0px" y="0px" viewBox="0 0 486.025 486.025" xml:space="preserve">
        <g>
            <path d="M420.725,85.413c-42.1-42.1-98.1-65.3-157.6-65.3c-60.6,0-117.3,23.9-159.6,67.3c-4.6,4.7-4.5,12.3,0.2,17
                c4.7,4.6,12.3,4.5,17-0.2c37.8-38.7,88.3-60,142.4-60c109.7-0.1,198.9,89.1,198.9,198.8s-89.2,198.9-198.9,198.9
                s-198.8-89.2-198.8-198.9v-2.5l19.7,19.8c2.3,2.3,5.4,3.5,8.5,3.5s6.1-1.2,8.5-3.5c4.7-4.7,4.7-12.3,0-17l-40.2-40.3
                c-4.7-4.7-12.3-4.7-17,0l-40.3,40.3c-4.7,4.7-4.7,12.3,0,17s12.3,4.7,17,0l19.8-19.8v2.5c0,59.5,23.2,115.5,65.3,157.6
                s98.1,65.3,157.6,65.3s115.5-23.2,157.6-65.3c42-42.1,65.2-98.1,65.2-157.6S462.825,127.513,420.725,85.413z"/>
            <path d="M263.125,103.613c-6.6,0-12,5.4-12,12v29.1h-7.6c-30.3,0-55,24.7-55,55s24.7,55,55,55h39.2c17.1,0,31,13.9,31,31
                s-13.9,31-31,31h-70.5c-6.6,0-12,5.4-12,12s5.4,12,12,12h38.9v29.5c0,6.6,5.4,12,12,12s12-5.4,12-12v-29.5h8c0.1,0,0.2,0,0.3,0
                c30-0.4,54.3-24.9,54.3-55c0-30.3-24.7-55-55-55h-39.2c-17.1,0-31-13.9-31-31s13.9-31,31-31h69.2c6.6,0,12-5.4,12-12
                s-5.4-12-12-12h-37.6v-29.1C275.125,109.013,269.825,103.613,263.125,103.613z"/>
        </g>
    </symbol>
    <symbol id="id-camera" xmlns="http://www.w3.org/2000/svg" x="0px" y="0px" viewBox="0 0 420.8 420.8" xml:space="preserve">
		<g>
			<path d="M406.8,96.4c-8.4-8.8-20-14-33.2-14h-66.4v-0.8c0-10-4-19.6-10.8-26c-6.8-6.8-16-10.8-26-10.8h-120
				c-10.4,0-19.6,4-26.4,10.8c-6.8,6.8-10.8,16-10.8,26v0.8h-66c-13.2,0-24.8,5.2-33.2,14c-8.4,8.4-14,20.4-14,33.2v199.2
				C0,342,5.2,353.6,14,362c8.4,8.4,20.4,14,33.2,14h326.4c13.2,0,24.8-5.2,33.2-14c8.4-8.4,14-20.4,14-33.2V129.6
				C420.8,116.4,415.6,104.8,406.8,96.4z M400,328.8h-0.4c0,7.2-2.8,13.6-7.6,18.4s-11.2,7.6-18.4,7.6H47.2
				c-7.2,0-13.6-2.8-18.4-7.6c-4.8-4.8-7.6-11.2-7.6-18.4V129.6c0-7.2,2.8-13.6,7.6-18.4s11.2-7.6,18.4-7.6h77.2
				c6,0,10.8-4.8,10.8-10.8V81.2c0-4.4,1.6-8.4,4.4-11.2s6.8-4.4,11.2-4.4h119.6c4.4,0,8.4,1.6,11.2,4.4c2.8,2.8,4.4,6.8,4.4,11.2
				v11.6c0,6,4.8,10.8,10.8,10.8H374c7.2,0,13.6,2.8,18.4,7.6s7.6,11.2,7.6,18.4V328.8z"/>
			<path d="M210.4,130.8c-27.2,0-52,11.2-69.6,28.8c-18,18-28.8,42.4-28.8,69.6s11.2,52,28.8,69.6c18,18,42.4,28.8,69.6,28.8
				s52-11.2,69.6-28.8c18-18,28.8-42.4,28.8-69.6s-11.2-52-28.8-69.6C262.4,142,237.6,130.8,210.4,130.8z M264.8,284
				c-14,13.6-33.2,22.4-54.4,22.4S170,297.6,156,284c-14-14-22.4-33.2-22.4-54.4c0-21.2,8.8-40.4,22.4-54.4
				c14-14,33.2-22.4,54.4-22.4s40.4,8.8,54.4,22.4c14,14,22.4,33.2,22.4,54.4C287.6,250.8,278.8,270,264.8,284z"/>
			<circle cx="352.8" cy="150" r="19.6"/>
		</g>
    </symbol> 
    <symbol id="ic-note" viewBox="0 0 64 64" xmlns="http://www.w3.org/2000/svg">
        <path d="m52 10h-40c-2.206 0-4 1.794-4 4v24c0 2.206 1.794 4 4 4h2v8.998c0 1.186.669 2.23 1.747 2.726.408.188.837.279 1.262.279.698 0 1.385-.248 1.945-.729.026-.022.052-.045.077-.069l11.769-11.205h21.2c2.206 0 4-1.794 4-4v-24c0-2.206-1.794-4-4-4zm0 28h-22c-.514 0-1.007.197-1.379.552l-10.621 10.111v-8.663c0-1.104-.896-2-2-2h-4v-24h40z"/>
    </symbol>   
    <symbol id="ic-shield" xmlns="http://www.w3.org/2000/svg" x="0px" y="0px" viewBox="0 0 512 512" xml:space="preserve">
        <g>
            <path d="M442.434,52.012L275.781,2.863c-12.938-3.817-26.621-3.817-39.563,0L69.567,52.011
                c-12.304,3.628-20.897,15.12-20.897,27.948v138.014c0,63.872,19.013,125.375,54.984,177.86
                c35.118,51.243,83.991,90.665,141.33,114c3.552,1.445,7.284,2.168,11.016,2.168s7.464-0.724,11.015-2.168
                c57.339-23.335,106.212-62.755,141.33-114c35.97-52.486,54.983-113.988,54.983-177.86V79.96
                C463.33,67.132,454.737,55.639,442.434,52.012z M440.02,217.972c0,59.147-17.602,116.093-50.901,164.681
                c-32.53,47.466-77.79,83.978-130.889,105.587c-1.438,0.585-3.021,0.585-4.459,0c-53.099-21.609-98.36-58.12-130.889-105.587
                C89.583,334.065,71.981,277.12,71.981,217.972V79.959c0-2.565,1.719-4.863,4.18-5.589l166.652-49.149
                c4.314-1.273,8.751-1.908,13.188-1.908c4.436,0,8.873,0.636,13.187,1.909L435.842,74.37c2.459,0.725,4.178,3.023,4.178,5.589
                V217.972z"/>
        </g>
        <g>
            <path d="M385.15,103.555l-124.206-36.63c-3.234-0.953-6.652-0.955-9.888,0l-124.203,36.63c-7.382,2.178-12.539,9.074-12.539,16.77
                v97.647c0,51.598,15.608,101.088,45.134,143.122c22.892,32.593,53.481,59.502,88.458,77.82c2.534,1.328,5.314,1.991,8.095,1.991
                c2.78,0,5.56-0.663,8.095-1.991c34.976-18.317,65.565-45.228,88.458-77.82c29.526-42.033,45.134-91.524,45.134-143.122v-97.647
                C397.687,112.627,392.531,105.732,385.15,103.555z M374.378,217.972c0,46.777-14.142,91.635-40.897,129.723
                c-20.172,28.717-46.912,52.562-77.48,69.12c-30.568-16.559-57.309-40.403-77.48-69.12
                c-26.755-38.088-40.897-82.946-40.897-129.723v-93.29L256.001,89.77l118.377,34.912V217.972z"/>
        </g>
    </symbol>
    <symbol id="ic-paper" xmlns="http://www.w3.org/2000/svg" x="0px" y="0px" viewBox="0 0 242.643 242.643" xml:space="preserve">
        <g>
            <path d="M225.142,0H17.5C7.851,0,0,7.851,0,17.5v207.643c0,9.65,7.851,17.5,17.5,17.5h207.642
                c9.649,0,17.5-7.85,17.5-17.5V17.5C242.642,7.851,234.791,0,225.142,0z M227.642,225.143c0,1.355-1.145,2.5-2.5,2.5H17.5
                c-1.355,0-2.5-1.145-2.5-2.5V17.5c0-1.355,1.145-2.5,2.5-2.5h207.642c1.355,0,2.5,1.145,2.5,2.5V225.143z"/>
            <path d="M102.252,40.646H36.606c-5.514,0-10,4.486-10,10v28.371c0,5.514,4.486,10,10,10h65.646
                c5.514,0,10-4.486,10-10V50.646C112.252,45.133,107.766,40.646,102.252,40.646z M102.237,79.018H36.606V50.646h65.646
                L102.237,79.018z M102.252,84.018v-5c0,0,0,0,0.001,0L102.252,84.018z"/>
            <path d="M206.037,157.222h-65.646c-5.514,0-10,4.486-10,10v28.371c0,5.514,4.486,10,10,10h65.646
                c5.514,0,10-4.486,10-10v-28.371C216.037,161.708,211.551,157.222,206.037,157.222z M206.022,195.593h-65.631v-28.371h65.646
                L206.022,195.593z M206.037,200.593v-5c0.001,0,0.001,0,0.001,0L206.037,200.593z"/>
            <path d="M107.252,106.425H31.606c-2.761,0-5,2.238-5,5c0,2.762,2.239,5,5,5h75.646c2.761,0,5-2.238,5-5
                C112.252,108.663,110.013,106.425,107.252,106.425z"/>
            <path d="M107.252,134.686H31.606c-2.761,0-5,2.238-5,5c0,2.762,2.239,5,5,5h75.646c2.761,0,5-2.238,5-5
                C112.252,136.925,110.013,134.686,107.252,134.686z"/>
            <path d="M107.252,162.947H31.606c-2.761,0-5,2.238-5,5c0,2.762,2.239,5,5,5h75.646c2.761,0,5-2.238,5-5
                C112.252,165.186,110.013,162.947,107.252,162.947z"/>
            <path d="M107.252,191.208H31.606c-2.761,0-5,2.238-5,5c0,2.762,2.239,5,5,5h75.646c2.761,0,5-2.238,5-5
                C112.252,193.446,110.013,191.208,107.252,191.208z"/>
            <path d="M211.037,49.904h-75.646c-2.761,0-5,2.238-5,5c0,2.762,2.239,5,5,5h75.646c2.761,0,5-2.238,5-5
                C216.037,52.143,213.798,49.904,211.037,49.904z"/>
            <path d="M211.037,78.165h-75.646c-2.761,0-5,2.238-5,5c0,2.762,2.239,5,5,5h75.646c2.761,0,5-2.238,5-5
                C216.037,80.403,213.798,78.165,211.037,78.165z"/>
            <path d="M211.037,106.425h-75.646c-2.761,0-5,2.238-5,5c0,2.762,2.239,5,5,5h75.646c2.761,0,5-2.238,5-5
                C216.037,108.663,213.798,106.425,211.037,106.425z"/>
            <path d="M211.037,134.686h-75.646c-2.761,0-5,2.238-5,5c0,2.762,2.239,5,5,5h75.646c2.761,0,5-2.238,5-5
                C216.037,136.925,213.798,134.686,211.037,134.686z"/>
        </g>
    </symbol>
    <symbol id="ic-discuss" xmlns="http://www.w3.org/2000/svg" x="0px" y="0px" viewBox="0 0 363 363" xml:space="preserve">
        <path d="M277.73,94.123c0,10.997-8.006,17.685-13.852,22.593c-2.214,1.859-6.335,5.251-6.324,6.518
        c0.04,4.97-3.956,8.939-8.927,8.939c-0.025,0-0.05,0-0.075,0c-4.936,0-8.958-3.847-8.998-8.792
        c-0.079-9.747,7.034-15.584,12.75-20.383c4.485-3.766,7.426-6.416,7.426-8.841c0-4.909-3.994-8.903-8.903-8.903
        c-4.911,0-8.906,3.994-8.906,8.903c0,4.971-4.029,9-9,9s-9-4.029-9-9c0-14.834,12.069-26.903,26.904-26.903
        C265.661,67.253,277.73,79.288,277.73,94.123z M248.801,140.481c-4.971,0-8.801,4.029-8.801,9v0.069
        c0,4.971,3.831,8.966,8.801,8.966s9-4.064,9-9.035S253.772,140.481,248.801,140.481z M67.392,203.174c-4.971,0-9,4.029-9,9
        s4.029,9,9,9h0.75c4.971,0,9-4.029,9-9s-4.029-9-9-9H67.392z M98.671,203.174c-4.971,0-9,4.029-9,9s4.029,9,9,9h0.749
        c4.971,0,9-4.029,9-9s-4.029-9-9-9H98.671z M363,59.425v101.301c0,23.985-19.232,43.448-43.217,43.448H203.066
        c-2.282,0-4.161-0.013-5.733-0.046c-1.647-0.034-3.501-0.047-4.224,0.033c-0.753,0.5-2.599,2.191-4.378,3.83
        c-0.705,0.649-1.503,1.363-2.364,2.149l-33.022,30.098c-2.634,2.403-6.531,3.025-9.793,1.587c-3.262-1.439-5.552-4.669-5.552-8.234
        v-95.417H43.72c-14.062,0-25.72,11.523-25.72,25.583v101.301c0,14.061,11.659,25.116,25.72,25.116h130.374
        c2.245,0,4.345,1.031,6.003,2.545L207,317.523v-85.539c0-4.971,4.029-9,9-9s9,4.029,9,9v105.938c0,3.565-2.04,6.747-5.303,8.186
        c-1.167,0.515-2.339,0.718-3.566,0.718c-2.204,0-4.378-0.905-6.069-2.449l-39.457-36.204H43.72c-23.986,0-43.72-19.13-43.72-43.116
        V163.757c0-23.985,19.734-43.583,43.72-43.583H138V59.425c0-23.986,19.885-43.251,43.871-43.251h137.913
        C343.768,16.174,363,35.439,363,59.425z M345,59.425c0-14.061-11.157-25.251-25.217-25.251H181.871
        C167.81,34.174,156,45.364,156,59.425v69.833v83.934l18.095-16.353c0.838-0.765,1.777-1.465,2.462-2.097
        c8.263-7.614,10.377-8.831,21.155-8.609c1.47,0.031,3.221,0.042,5.354,0.042h116.717c14.06,0,25.217-11.388,25.217-25.448V59.425z"
        />
    </symbol>
    <symbol id="ic-window" xmlns="http://www.w3.org/2000/svg" x="0px" y="0px" viewBox="0 0 512 512" xml:space="preserve">
        <g>
            <path d="M490.667,448H480V10.667C480,4.8,475.2,0,469.333,0H42.667C36.8,0,32,4.8,32,10.667V448H21.333
                c-5.867,0-10.667,4.8-10.667,10.667v42.667c0,5.867,4.8,10.667,10.667,10.667h469.333c5.867,0,10.667-4.8,10.667-10.667v-42.667
                C501.333,452.8,496.533,448,490.667,448z M53.333,21.333h405.333V448h-21.333V53.333c0-5.867-4.8-10.667-10.667-10.667H85.333
                c-5.867,0-10.667,4.8-10.667,10.667V448H53.333V21.333z M266.667,245.333V64H416v181.333H266.667z M416,266.667V448H266.667
                V266.667H416z M96,245.333V64h149.333v181.333H96z M245.333,266.667V448H96V266.667H245.333z M480,490.667H32v-21.333h448V490.667
                z"/>
        </g>
    </symbol>
</svg>